{"title":"Naakt over de Schutting (1973)(DUTCH) 2Lions-Team","uid":5691527,"size":4105177177,"categoryP":"video","categoryS":"movies_dvdr","magnet":"?xt=urn:btih:14eefa46f3c975b4fbff7442084272ee3a725245&amp;dn=Naakt+over+de+Schutting+%281973%29%28DUTCH%29+2Lions-Team&amp;tr=udp%3A%2F%2Ftracker.openbittorrent.com%3A80&amp;tr=udp%3A%2F%2Fopen.demonii.com%3A1337&amp;tr=udp%3A%2F%2Ftracker.coppersurfer.tk%3A6969&amp;tr=udp%3A%2F%2Fexodus.desync.com%3A6969","seeders":0,"leechers":1,"uploader":"Pioen","files":18,"time":1279065881,"description":"Naakt over de Schutting (1973)       \n\nNederland\nMisdaad / Thriller\n96 minuten\n\ngeregisseerd door Frans Weisz\nmet Rijk de Gooyer, Sylvia Kristel en Jon Bluming\n\nRick Lemming (Rijk de Gooyer) woont in het hart van Amsterdam, waar hij duiven houdt en een kamer heeft verhuurd aan een onderwijzeres, Penny. Zijn beste vriend is Ed Swaan, karatekampioen van Nederland en tot over zijn oren verliefd op het zangeresje Lilly (Sylvia Kristel). Via Lilly komt Ed in contact met een televisieregisseur die Rick en Penny overhaalt in een 'kunstfilm' op te treden. Penny vertrouwt het niet helemaal en Rick gaat op onderzoek uit. Hij gluurt naar binnen en ziet een schimmig erotisch filmgedoe dat uitloopt op een fikse knokpartij. Ed en Lilly ontsnappen naakt over de schutting. Rick en Ed gaan de volgende morgen terug en vinden de studiobaas vermoord. Nu zijn ze niet meer te houden. Op zoek naar de moordenaar dringen ze door in de wereld van televisieglamour, krantensensatie en jetset.\n\n\nCast:\nRijk de GooyerJennifer WillemsJon BlumingAdÃƒÂ¨le BloemendaalSylvia KristelTon LensinkJerome ReehuisKo van DijkLo SysesHans SysesJerry BrouerFrans HalsemaManiuschka CahnRinus FerdinandusseCarola Gijsbers van WijkLex GoudsmitLoek HollanderKarel KorsmanEd LautenslagerCon MeyerWim PonciaHarm PostJaap StobbeOlga Zuiderhoek\n\n\n\nSpotinformatie \nCategorie : Beeld \nFormaat : DVD5 \nBron : Retail\nAudio : Dutch \nOndertitels : Geen\n\nVideo\nID                               : 224 (0xE0)\nFormat                           : MPEG Video\nFormat version                   : Version 2\nFormat profile                   : Main@Main\nFormat settings, Matrix          : Default\nDuration                         : 24mn 14s\nBit rate mode                    : Constant\nBit rate                         : 5 478 Kbps\nNominal bit rate                 : 5 600 Kbps\nWidth                            : 720 pixels\nHeight                           : 576 pixels\nDisplay aspect ratio             : 4/3\nFrame rate                       : 25.000 fps\nStandard                         : PAL\nColorimetry                      : 4:2:0\nScan type                        : Interlaced\nScan order                       : Top Field First\nBits/(Pixel*Frame)               : 0.528\nStream size                      : 950 MiB (93%)\n\nAudio\nID                               : 128 (0x80)\nFormat                           : AC-3\nFormat/Info                      : Audio Coding 3\nDuration                         : 24mn 14s\nBit rate mode                    : Constant\nBit rate                         : 192 Kbps\nChannel(s)                       : 2 channels\nChannel positions                : L R\nSampling rate                    : 48.0 KHz\nVideo delay                      : 120ms\nStream size                      : 33.3 MiB (3%)\n \nGenre : Misdaad\nThriller\n \nWeblink : &lt;a href=&quot; http://www.moviemeter.nl/film/1656&quot; rel=&quot;nofollow&quot; target=&quot;_NEW&quot;&gt; http://www.moviemeter.nl/film/1656&lt;/a&gt; \nWeblink : &lt;a href=&quot; http://www.imdb.com/title/tt0070430&quot; rel=&quot;nofollow&quot; target=&quot;_NEW&quot;&gt; http://www.imdb.com/title/tt0070430&lt;/a&gt;\n\n \n*****************************************************\n \nBrought to you by\nPioen\n2Lions Team\n\nmeer zien??\nKom dan eens kijken op ons forum\n    \n\n2Lions-Team and Film-Terminal for all your Dutch MOVIES and more\n\n*****************************************************\n\nDON T HIT AND RUN Niet gelijk afhaken als de film binnen is blijf seeden.\n\nDon`t quit after you finished the download, but keep seeding.\n\n*****************************************************\n\nThere are fake torrents from uploaders who use our team name.\nThose are not ours, or members from our team.\nWe 2Lions-Team and Film-Terminal are not responsible for the fake posts on our name\n\nWij 2Lions-Team en Film-Terminal zijn niet verantwoordelijk voor die zieke FAKE posten die op \n\nonze naam worden gedaan\n\nPlease check our site !!!\n\nto the fakers , get a life !!!\n\n*****************************************************\t\n \n \n \n","torrent":{"xt":"urn:btih:14eefa46f3c975b4fbff7442084272ee3a725245","amp;dn":"Naakt+over+de+Schutting+%281973%29%28DUTCH%29+2Lions-Team","amp;tr":["udp%3A%2F%2Ftracker.openbittorrent.com%3A80","udp%3A%2F%2Fopen.demonii.com%3A1337","udp%3A%2F%2Ftracker.coppersurfer.tk%3A6969","udp%3A%2F%2Fexodus.desync.com%3A6969"],"infoHash":"14eefa46f3c975b4fbff7442084272ee3a725245","infoHashBuffer":{"type":"Buffer","data":[20,238,250,70,243,201,117,180,251,255,116,66,8,66,114,238,58,114,82,69]},"announce":[],"urlList":[]}}